<svg width="48" height="48" viewBox="0 0 48 48" fill="none" xmlns="http://www.w3.org/2000/svg">
<rect width="48" height="48" fill="#323238"/>
<path d="M15.3418 39.2744H8.4102V17.0849H15.3418V39.2744ZM8 11.3633C8 10.3789 8.3555 9.57226 9.0664 8.94336C9.7774 8.31445 10.7002 8 11.835 8C12.9697 8 13.8926 8.31445 14.6035 8.94336C15.3145 9.57226 15.6699 10.3789 15.6699 11.3633C15.6699 12.3476 15.3145 13.1543 14.6035 13.7832C13.8926 14.4121 12.9697 14.7265 11.835 14.7265C10.7002 14.7265 9.7774 14.4121 9.0664 13.7832C8.3555 13.1543 8 12.3476 8 11.3633ZM25.9649 17.0849L26.1904 19.6894C27.7217 17.6797 29.834 16.6748 32.5274 16.6748C34.8379 16.6748 36.5606 17.3652 37.6953 18.7461C38.8438 20.1269 39.4385 22.2051 39.4795 24.9805V39.2744H32.5479V25.2676C32.5479 24.1465 32.3223 23.3262 31.8711 22.8066C31.4199 22.2734 30.5996 22.0068 29.4102 22.0068C28.0567 22.0068 27.0518 22.54 26.3955 23.6064V39.2744H19.4844V17.0849H25.9649Z" fill="white"/>
</svg>